<?xml version="1.0" encoding="UTF-8"?>
<!DOCTYPE svg PUBLIC "-//W3C//DTD SVG 1.1//EN" "http://www.w3.org/Graphics/SVG/1.1/DTD/svg11.dtd">
<!-- Creator: CorelDRAW Home & Student X7 -->
<svg xmlns="http://www.w3.org/2000/svg" xml:space="preserve" width="320.04mm" height="320.79mm" version="1.1" style="shape-rendering:geometricPrecision; text-rendering:geometricPrecision; image-rendering:optimizeQuality; fill-rule:evenodd; clip-rule:evenodd"
viewBox="0 0 4247 4257"
 xmlns:xlink="http://www.w3.org/1999/xlink">
 <defs>
  <style type="text/css">
   <![CDATA[
    .str0 {stroke:#4D4D4D;stroke-width:19.9038}
    .fil2 {fill:none}
    .fil0 {fill:white}
    .fil1 {fill:#4D4D4D;fill-rule:nonzero}
   ]]>
  </style>
 </defs>
 <g id="Layer_x0020_1">
  <metadata id="CorelCorpID_0Corel-Layer"/>
  <g id="_410371192">
   <path class="fil0 str0" d="M2232 10c510,0 923,413 923,924 0,375 -224,698 -546,843 840,174 1470,918 1470,1808l-3694 0c0,-890 630,-1634 1469,-1808 -322,-145 -546,-468 -546,-843 0,-511 414,-924 924,-924z"/>
   <path class="fil1" d="M1402 4151l0 -151c0,-21 -3,-37 -9,-46 -7,-10 -17,-14 -32,-14 -13,0 -24,3 -33,11 -9,8 -15,17 -19,28l0 172 -69 0 0 -265 54 0 8 35 3 0c8,-11 18,-21 32,-30 13,-8 30,-12 52,-12 13,0 24,1 35,5 10,4 18,9 26,17 7,9 12,20 15,34 4,13 6,31 6,51l0 165 -69 0z"/>
   <path id="1" class="fil1" d="M1516 4018c0,-44 11,-79 33,-103 21,-24 52,-36 92,-36 21,0 39,3 55,10 15,6 28,16 38,28 11,12 18,27 23,44 5,18 8,37 8,57 0,45 -11,80 -33,104 -21,24 -52,36 -91,36 -22,0 -40,-3 -55,-10 -16,-7 -29,-16 -39,-28 -11,-12 -19,-27 -24,-44 -5,-18 -7,-37 -7,-58zm71 0c0,12 1,23 3,33 2,10 5,18 9,26 5,7 10,13 17,17 7,4 15,6 25,6 18,0 31,-7 40,-20 9,-13 13,-33 13,-62 0,-24 -4,-44 -12,-59 -8,-15 -22,-22 -41,-22 -17,0 -31,6 -40,19 -10,13 -14,33 -14,62z"/>
   <path id="2" class="fil1" d="M1947 3886l50 0 8 32 2 0c9,-14 20,-23 32,-30 13,-6 28,-9 46,-9 33,0 58,10 75,31 16,21 25,55 25,102 0,22 -3,43 -8,61 -6,18 -13,33 -24,46 -10,13 -23,22 -38,29 -15,7 -32,10 -51,10 -11,0 -20,-1 -27,-2 -8,-2 -15,-4 -22,-8l0 109 -68 0 0 -371zm118 51c-14,0 -24,3 -32,10 -7,7 -13,17 -18,30l0 110c5,4 11,7 16,10 6,2 14,3 24,3 19,0 34,-7 44,-21 10,-14 15,-37 15,-69 0,-23 -4,-41 -12,-54 -8,-13 -20,-19 -37,-19z"/>
   <path id="3" class="fil1" d="M2394 4151l0 -151c0,-21 -3,-37 -9,-46 -6,-10 -17,-14 -32,-14 -12,0 -23,4 -33,11 -9,8 -16,19 -19,31l0 169 -69 0 0 -371 69 0 0 136 2 0c9,-12 19,-21 32,-27 12,-7 28,-10 47,-10 13,0 25,1 35,5 10,4 19,9 26,17 7,9 12,20 15,34 3,13 5,31 5,51l0 165 -69 0z"/>
   <path id="4" class="fil1" d="M2508 4018c0,-44 11,-79 33,-103 22,-24 53,-36 92,-36 21,0 40,3 55,10 16,6 29,16 39,28 10,12 18,27 23,44 5,18 7,37 7,57 0,45 -10,80 -32,104 -22,24 -52,36 -92,36 -21,0 -39,-3 -55,-10 -16,-7 -28,-16 -39,-28 -10,-12 -18,-27 -23,-44 -5,-18 -8,-37 -8,-58zm71 0c0,12 1,23 3,33 2,10 6,18 10,26 4,7 10,13 16,17 7,4 16,6 25,6 18,0 31,-7 40,-20 9,-13 14,-33 14,-62 0,-24 -5,-44 -13,-59 -8,-15 -22,-22 -41,-22 -17,0 -30,6 -40,19 -9,13 -14,33 -14,62z"/>
   <path id="5" class="fil1" d="M2778 3886l36 0 0 -50 69 -19 0 69 64 0 0 58 -64 0 0 102c0,18 2,31 5,39 4,8 11,12 21,12 7,0 13,0 19,-2 5,-1 10,-3 17,-6l12 53c-10,4 -21,8 -33,11 -13,4 -26,5 -39,5 -24,0 -42,-6 -54,-19 -11,-12 -17,-33 -17,-61l0 -134 -36 0 0 -58z"/>
   <path id="6" class="fil1" d="M2974 4018c0,-44 11,-79 33,-103 22,-24 53,-36 92,-36 22,0 40,3 55,10 16,6 29,16 39,28 10,12 18,27 23,44 5,18 8,37 8,57 0,45 -11,80 -33,104 -22,24 -52,36 -92,36 -21,0 -39,-3 -55,-10 -15,-7 -28,-16 -39,-28 -10,-12 -18,-27 -23,-44 -5,-18 -8,-37 -8,-58zm71 0c0,12 1,23 4,33 2,10 5,18 9,26 4,7 10,13 17,17 7,4 15,6 24,6 18,0 32,-7 41,-20 8,-13 13,-33 13,-62 0,-24 -4,-44 -12,-59 -8,-15 -22,-22 -42,-22 -17,0 -30,6 -39,19 -10,13 -15,33 -15,62z"/>
  </g>
  <rect class="fil2" y="10" width="4247" height="4247"/>
 </g>
</svg>
