<?xml version="1.0" encoding="UTF-8"?>
<!DOCTYPE svg PUBLIC "-//W3C//DTD SVG 1.1//EN" "http://www.w3.org/Graphics/SVG/1.1/DTD/svg11.dtd">
<!-- Creator: CorelDRAW Home & Student X7 -->
<svg xmlns="http://www.w3.org/2000/svg" xml:space="preserve" width="118.682mm" height="83.82mm" version="1.1" style="shape-rendering:geometricPrecision; text-rendering:geometricPrecision; image-rendering:optimizeQuality; fill-rule:evenodd; clip-rule:evenodd"
viewBox="0 0 2739 1935"
 xmlns:xlink="http://www.w3.org/1999/xlink">
 <defs>
  <style type="text/css">
   <![CDATA[
    .fil2 {fill:red}
    .fil0 {fill:red}
    .fil1 {fill:white}
   ]]>
  </style>
 </defs>
 <g id="Layer_x0020_1">
  <metadata id="CorelCorpID_0Corel-Layer"/>
  <polygon class="fil0" points="1902,0 2321,242 2739,484 2739,967 2739,1451 2321,1693 1902,1935 1483,1693 1064,1451 1064,967 1064,484 1483,242 "/>
  <path class="fil1" d="M1381 1049l-53 0 -22 85 -64 0 21 -85 -44 0 13 -56 46 0 14 -57 -43 0 13 -56 44 0 21 -79 64 0 -20 79 54 0 20 -79 64 0 -20 79 43 0 -15 56 -42 0 -15 57 41 0 -14 56 -42 0 -21 85 -64 0 21 -85zm-39 -56l54 0 14 -57 -54 0 -14 57zm236 -216c9,-2 18,-3 29,-4 10,-2 21,-3 32,-3 10,-1 21,-2 31,-2 10,0 20,-1 28,-1 20,0 39,2 58,5 19,4 36,9 51,18 15,8 27,19 36,33 10,14 14,32 14,54 0,31 -8,58 -23,78 -16,21 -38,35 -65,42l29 17 97 147 -95 0 -97 -150 -43 -7 0 157 -82 0 0 -384zm126 63c-9,0 -17,0 -25,0 -8,0 -14,1 -19,2l0 107 35 0c23,0 41,-5 55,-14 13,-8 20,-24 20,-46 0,-16 -6,-28 -17,-37 -11,-8 -28,-12 -49,-12zm235 -67l251 0 0 72 -169 0 0 84 153 0 0 72 -153 0 0 88 171 0 0 72 -253 0 0 -388zm314 0c8,-1 18,-2 28,-3 11,-1 22,-1 33,-1 11,-1 22,-1 33,-1 11,-1 20,-1 29,-1 37,0 69,5 95,15 27,10 48,23 65,41 17,17 29,38 37,62 8,24 12,50 12,79 0,26 -4,51 -12,75 -7,25 -20,46 -37,65 -17,19 -39,35 -66,46 -28,12 -61,17 -101,17 -7,0 -15,0 -26,0 -11,-1 -22,-1 -34,-2 -12,0 -22,-1 -33,-1 -10,-1 -17,-1 -23,-2l0 -389zm129 67c-8,0 -17,0 -26,0 -9,0 -16,0 -21,1l0 252c2,0 5,1 9,1 4,0 8,0 12,0 5,1 9,1 12,1 4,0 7,0 9,0 24,0 43,-3 59,-11 15,-7 28,-17 37,-29 9,-12 15,-26 19,-42 4,-15 5,-31 5,-48 0,-14 -1,-28 -5,-43 -3,-15 -9,-28 -18,-40 -8,-13 -20,-23 -35,-31 -15,-8 -34,-11 -57,-11z"/>
  <path class="fil2" d="M297 1005c0,-17 -7,-30 -21,-40 -14,-10 -32,-19 -53,-27 -20,-8 -43,-16 -68,-24 -24,-8 -47,-19 -67,-33 -21,-13 -39,-30 -53,-51 -14,-21 -21,-48 -21,-81 0,-28 5,-53 15,-74 10,-22 24,-39 42,-53 18,-14 40,-24 66,-31 26,-7 54,-11 85,-11 36,0 70,3 102,9 33,7 59,15 80,27l-38 101c-7,-4 -15,-8 -25,-12 -10,-4 -22,-8 -35,-11 -13,-3 -27,-5 -41,-7 -15,-2 -30,-3 -45,-3 -27,0 -48,5 -63,14 -15,10 -23,23 -23,40 0,17 7,30 21,40 15,10 32,19 53,28 21,8 44,17 68,25 24,9 47,19 68,33 21,13 38,30 52,50 15,20 22,46 22,77 0,32 -6,59 -17,82 -10,22 -26,41 -46,56 -19,15 -43,26 -71,33 -28,7 -58,11 -91,11 -22,0 -43,-2 -63,-4 -20,-2 -38,-5 -55,-9 -17,-4 -32,-7 -44,-11 -13,-4 -23,-8 -31,-12l40 -102c6,3 14,7 25,11 10,3 22,7 35,11 13,3 27,6 42,8 15,2 30,3 45,3 36,0 63,-5 82,-15 19,-10 28,-26 28,-48zm207 -271l81 0 14 53 10 0c17,-22 36,-38 59,-49 22,-11 48,-16 78,-16 57,0 100,17 129,51 29,35 43,89 43,164 0,36 -4,69 -14,98 -9,29 -22,54 -40,75 -18,20 -40,36 -67,48 -26,11 -56,16 -90,16 -19,0 -35,-1 -48,-5 -14,-4 -28,-8 -41,-14l0 168 -114 0 0 -589zm207 83c-26,0 -46,6 -61,17 -14,12 -24,30 -32,55l0 166c9,7 19,13 31,18 11,4 26,6 43,6 37,0 64,-12 82,-35 18,-23 27,-59 27,-110 0,-36 -7,-65 -21,-86 -14,-21 -37,-31 -69,-31z"/>
 </g>
</svg>
