<?xml version="1.0" encoding="UTF-8"?>
<!DOCTYPE svg PUBLIC "-//W3C//DTD SVG 1.1//EN" "http://www.w3.org/Graphics/SVG/1.1/DTD/svg11.dtd">
<!-- Creator: CorelDRAW Home & Student X7 -->
<svg xmlns="http://www.w3.org/2000/svg" xml:space="preserve" width="118.682mm" height="83.82mm" version="1.1" style="shape-rendering:geometricPrecision; text-rendering:geometricPrecision; image-rendering:optimizeQuality; fill-rule:evenodd; clip-rule:evenodd"
viewBox="0 0 2404 1698"
 xmlns:xlink="http://www.w3.org/1999/xlink">
 <defs>
  <style type="text/css">
   <![CDATA[
    .fil0 {fill:#DB2828}
    .fil1 {fill:white}
   ]]>
  </style>
 </defs>
 <g id="Layer_x0020_1">
  <metadata id="CorelCorpID_0Corel-Layer"/>
  <polygon class="fil0" points="1669,0 2036,212 2404,424 2404,849 2404,1273 2036,1486 1669,1698 1301,1486 934,1273 934,849 934,424 1301,212 "/>
  <path class="fil1" d="M1212 920l-47 0 -19 75 -57 0 19 -75 -38 0 11 -49 40 0 13 -50 -38 0 11 -49 39 0 18 -69 57 0 -18 69 47 0 18 -69 57 0 -18 69 37 0 -13 49 -37 0 -13 50 36 0 -12 49 -37 0 -18 75 -57 0 19 -75zm-34 -49l47 0 12 -50 -47 0 -12 50zm206 -189c8,-2 17,-3 26,-4 9,-1 19,-2 28,-3 9,0 19,-1 27,-1 9,0 18,-1 25,-1 17,0 34,2 51,5 17,3 32,8 45,15 13,7 23,17 32,29 8,13 12,28 12,47 0,28 -7,51 -21,69 -14,18 -33,30 -57,37l26 15 85 129 -84 0 -85 -132 -38 -6 0 138 -72 0 0 -337zm111 55c-8,0 -15,0 -22,0 -7,0 -12,1 -17,2l0 94 31 0c21,0 37,-4 49,-12 11,-8 17,-21 17,-41 0,-14 -5,-25 -15,-32 -10,-8 -24,-11 -43,-11zm207 -59l219 0 0 64 -147 0 0 74 134 0 0 63 -134 0 0 77 150 0 0 63 -222 0 0 -341zm275 0c7,-1 16,-2 25,-2 9,-1 19,-1 29,-2 9,0 19,0 29,0 9,-1 17,-1 25,-1 32,0 60,5 83,13 24,9 43,21 57,36 15,15 26,33 33,55 6,21 10,44 10,69 0,22 -3,44 -10,66 -7,21 -18,40 -32,57 -15,17 -35,30 -59,40 -24,10 -53,15 -88,15 -6,0 -14,0 -23,0 -10,0 -20,-1 -30,-1 -10,-1 -20,-1 -29,-2 -8,0 -15,-1 -20,-2l0 -341zm113 59c-7,0 -15,0 -23,0 -7,0 -13,0 -18,1l0 221c2,0 4,1 8,1 3,0 7,0 11,0 3,0 7,1 10,1 4,0 6,0 8,0 21,0 38,-3 51,-10 14,-6 25,-15 33,-25 8,-11 13,-23 17,-37 3,-14 4,-28 4,-42 0,-12 -1,-25 -4,-38 -3,-13 -8,-25 -16,-35 -7,-11 -18,-20 -31,-27 -13,-7 -29,-10 -50,-10z"/>
  <path class="fil0" d="M261 882c0,-15 -6,-27 -19,-35 -12,-9 -28,-17 -46,-24 -18,-7 -38,-14 -60,-21 -21,-7 -41,-17 -59,-29 -19,-12 -34,-27 -46,-45 -13,-18 -19,-41 -19,-70 0,-25 5,-47 13,-66 9,-19 22,-34 38,-46 15,-12 35,-22 57,-28 23,-6 48,-9 75,-9 31,0 61,3 90,8 28,6 51,13 69,23l-33 89c-6,-3 -13,-7 -22,-10 -9,-4 -19,-7 -30,-10 -12,-2 -24,-4 -37,-6 -13,-2 -26,-3 -39,-3 -24,0 -42,5 -55,13 -14,8 -20,20 -20,35 0,14 6,26 18,35 13,9 28,17 47,24 18,8 38,15 59,22 22,8 41,17 60,29 18,12 34,26 46,44 12,17 18,40 18,68 0,27 -4,51 -14,71 -9,20 -23,37 -40,50 -18,13 -38,23 -63,29 -24,6 -51,9 -80,9 -19,0 -38,-1 -55,-3 -17,-2 -34,-5 -48,-8 -15,-3 -28,-7 -39,-10 -11,-4 -20,-7 -27,-10l35 -90c5,3 13,6 22,10 9,3 19,6 31,9 11,3 24,6 37,8 13,2 26,3 39,3 32,0 56,-5 72,-14 17,-9 25,-23 25,-42zm181 -238l72 0 12 46 8 0c15,-19 32,-33 52,-42 19,-10 42,-15 68,-15 51,0 89,15 114,46 25,30 38,78 38,144 0,31 -4,59 -12,85 -8,25 -20,47 -36,66 -16,18 -35,32 -58,42 -23,10 -50,14 -80,14 -16,0 -30,-1 -42,-4 -12,-3 -24,-7 -36,-13l0 148 -100 0 0 -517zm182 73c-23,0 -41,5 -53,15 -13,10 -22,26 -29,48l0 145c8,7 17,12 27,16 10,4 23,6 38,6 33,0 57,-10 72,-31 16,-20 24,-52 24,-96 0,-32 -6,-57 -18,-76 -12,-18 -33,-27 -61,-27z"/>
 </g>
</svg>
